<svg xmlns="http://www.w3.org/2000/svg" xmlns:xlink="http://www.w3.org/1999/xlink" width="71.656" height="78.799" viewBox="0 0 71.656 78.799">
  <defs>
    <linearGradient id="linear-gradient" x1="1" x2="0.161" y2="0.943" gradientUnits="objectBoundingBox">
      <stop offset="0" stop-color="#fff" stop-opacity="0"/>
      <stop offset="0.148" stop-color="#fff" stop-opacity="0.082"/>
      <stop offset="1" stop-color="#fff"/>
    </linearGradient>
  </defs>
  <g id="Groupe_154" data-name="Groupe 154" transform="translate(-449.993 -1689.634)">
    <path id="Tracé_37" data-name="Tracé 37" d="M25.932,0,0,15.363.338,45.5l26.27,14.777L52.54,44.917,52.2,14.777Z" transform="translate(451 1706.999)" fill="none" stroke="#91eb9d" stroke-width="2"/>
    <g id="noun-check-1159941" transform="translate(377.189 1688.704)">
      <path id="Tracé_68" data-name="Tracé 68" d="M143.541.93a46.875,46.875,0,0,0-5.353.548,23.828,23.828,0,0,0-5.042,1.052,19.266,19.266,0,0,0-4.121,3.464,92.839,92.839,0,0,0-8.638,10.95,178.156,178.156,0,0,0-10.567,16.874q-4.911,8.889-9.165,18.455-3.935-6.737-7.124-9.138t-5.373-2.41a8.108,8.108,0,0,0-4.283,1.815Q81.3,44.357,81.3,46.107q0,1.27,2.364,3.76a72.452,72.452,0,0,1,8.277,10.5,36.769,36.769,0,0,0,2.916,4.069c.482.491,1.949.743,4.4.743q5.121,0,6.087-1.318a47.862,47.862,0,0,0,3.547-7.588,170.852,170.852,0,0,1,15.9-30.213Q134.3,11.676,142.224,4.3a21.278,21.278,0,0,0,1.909-1.818,1.387,1.387,0,0,0,.327-.856c0-.464-.307-.7-.919-.7Z" fill-rule="evenodd" fill="url(#linear-gradient)"/>
    </g>
  </g>
</svg>
