<svg xmlns="http://www.w3.org/2000/svg" width="67.445" height="64.99" viewBox="0 0 67.445 64.99">
  <g id="Groupe_21" data-name="Groupe 21" transform="translate(-1240 -3064.404)">
    <path id="Tracé_31" data-name="Tracé 31" d="M38.332,0,10.79,3.442,0,29.018,16.752,51.149,44.294,47.7l10.79-25.573Z" transform="matrix(0.966, 0.259, -0.259, 0.966, 1254.238, 3065.73)" fill="#91eb9d"/>
    <path id="Tracé_29" data-name="Tracé 29" d="M38.332,0,10.79,3.442,0,29.018,16.752,51.149,44.294,47.7l10.79-25.573Z" transform="translate(1247.118 3064.403) rotate(8)" fill="#fff"/>
    <g id="noun-phone-2232835" transform="translate(1201.771 3094.294)">
      <path id="Tracé_30" data-name="Tracé 30" d="M126.309,64.667c-.588-5,3.822-7.84,4.214-7.937.294-.1.784-.686,2.744,1.764,1.862,2.45,3.234,4.41,2.058,5.488-1.274,1.078-3.136,2.45-2.156,4.312.784,1.666,5.88,6.664,7.448,7.448,1.96.98,3.234-.882,4.312-2.058,1.078-1.274,3.136.1,5.586,1.96,2.45,1.96,1.862,2.45,1.764,2.842-.1.294-2.94,4.7-8.036,4.214-5.292-.588-17.444-12.74-17.934-18.032Z" transform="translate(-70.271 -70.399)" fill="#121833" fill-rule="evenodd"/>
    </g>
  </g>
</svg>
