<svg width="582" height="299" viewBox="0 0 582 299" fill="none" xmlns="http://www.w3.org/2000/svg">
<path d="M28.86 98.5L47.16 167.05L69.68 98.5H91.63L114.16 167.05L132.45 98.5H161.31L129.64 204.63H101.49L80.66 143.12L59.86 204.63H31.67L0 98.5H28.86Z" fill="white"/>
<path d="M214.09 98.5V204.63H186.5V98.5H214.09Z" fill="white"/>
<path d="M338.66 204.63H304.32L277.99 163.81V204.63H250.41V98.4999H293.34C298.631 98.387 303.895 99.2689 308.86 101.1C312.864 102.571 316.496 104.904 319.499 107.933C322.502 110.962 324.803 114.614 326.24 118.63C327.72 122.685 328.462 126.973 328.43 131.29C328.43 139.37 326.48 145.917 322.58 150.93C318.68 155.943 312.934 159.343 305.34 161.13L338.66 204.63ZM277.99 145.93H283.2C288.64 145.93 292.817 144.803 295.73 142.55C298.643 140.297 300.097 137.06 300.09 132.84C300.09 128.62 298.637 125.383 295.73 123.13C292.823 120.877 288.647 119.75 283.2 119.75H277.99V145.93Z" fill="white"/>
<path d="M424.66 121.86H391.86V139.6H422.86V163H391.86V181.3H424.66V204.67H364.28V98.5H424.66V121.86Z" fill="white"/>
<path d="M547.54 131.37C547.29 130.77 547.04 130.19 546.76 129.62L544.35 135.35L533.86 136.65L527.49 128.25L531.6 118.54L539.15 117.54C538.25 116.46 537.31 115.43 536.33 114.42C531.555 109.566 525.928 105.63 519.73 102.81C513.349 99.8928 506.407 98.4048 499.39 98.4502H495.18L496.62 100.34L492.51 110.05L482.05 111.36L475.7 103L477.6 98.5002H458.6V204.63H499.43C506.476 204.68 513.448 203.192 519.86 200.27C526.078 197.44 531.714 193.475 536.48 188.58C541.23 183.671 545.001 177.901 547.59 171.58C550.249 165.202 551.612 158.358 551.6 151.448C551.588 144.538 550.201 137.699 547.52 131.33L547.54 131.37ZM514.12 105.7L518.18 105.2L520.64 108.45L519.06 112.22L515 112.73L512.54 109.47L514.12 105.7ZM520.73 163.45C519.444 166.953 517.43 170.143 514.82 172.81C512.123 175.52 508.886 177.632 505.32 179.01C501.232 180.569 496.884 181.333 492.51 181.26H486.17V121.86H492.51C494.933 121.846 497.352 122.073 499.73 122.54L500.86 119.8L507.03 119.03L510.79 124.03L509.79 126.47C511.567 127.558 513.206 128.857 514.67 130.34C517.298 133.037 519.341 136.247 520.67 139.77C522.094 143.551 522.809 147.561 522.78 151.6C522.813 155.641 522.119 159.655 520.73 163.45V163.45Z" fill="white"/>
<path d="M10.4502 226.45H30.6602C33.3398 226.457 36.0146 226.675 38.6602 227.1C41.2431 227.486 43.7201 228.395 45.9402 229.77C48.1341 231.186 49.9389 233.128 51.1902 235.42C52.657 238.386 53.3453 241.675 53.1902 244.98C53.2521 248.358 52.1307 251.652 50.0202 254.29C47.9002 256.957 44.7635 258.707 40.6102 259.54V259.74C42.8034 259.904 44.9501 260.456 46.9502 261.37C48.8159 262.228 50.497 263.441 51.9002 264.94C53.3194 266.472 54.4146 268.275 55.1202 270.24C55.8997 272.397 56.2859 274.677 56.2602 276.97C56.4051 280.409 55.5989 283.82 53.9302 286.83C52.4874 289.265 50.4855 291.322 48.0902 292.83C45.7514 294.288 43.1654 295.305 40.4602 295.83C37.9312 296.337 35.3595 296.602 32.7802 296.62H10.4502V226.45ZM16.9902 256.76H30.5602C33.3553 256.851 36.1437 256.434 38.7902 255.53C40.6254 254.874 42.3091 253.853 43.7402 252.53C44.8443 251.479 45.6632 250.165 46.1202 248.71C46.4888 247.507 46.6874 246.258 46.7102 245C46.7852 242.897 46.3602 240.807 45.4702 238.9C44.7058 237.355 43.5639 236.027 42.1502 235.04C40.68 234.063 39.0322 233.383 37.3002 233.04C35.3793 232.641 33.4221 232.444 31.4602 232.45H16.9902V256.76ZM16.9902 290.64H31.9902C35.1362 290.751 38.2756 290.28 41.2502 289.25C43.2924 288.528 45.1403 287.344 46.6502 285.79C47.8263 284.538 48.6928 283.028 49.1802 281.38C49.5819 280.012 49.7972 278.596 49.8202 277.17C49.8869 274.867 49.3746 272.584 48.3302 270.53C47.4037 268.755 46.0834 267.216 44.4702 266.03C42.8472 264.852 41.0146 263.993 39.0702 263.5C37.0829 262.975 35.0358 262.709 32.9802 262.71H16.9802L16.9902 290.64Z" fill="white"/>
<path d="M106.54 226.45H149.43V232.4H113.08V257.4H147.15V263.34H113.08V290.68H151.01V296.62H106.54V226.45Z" fill="white"/>
<path d="M220.45 226.45H227.19L256.71 296.58H249.37L241.75 278H204.6L196.68 296.62H189.86L220.45 226.45ZM223.52 233.59L207.18 272H239.37L223.52 233.59Z" fill="white"/>
<path d="M350.31 269.74C350.325 273.379 349.892 277.007 349.02 280.54C348.23 283.843 346.762 286.945 344.71 289.65C342.613 292.364 339.897 294.538 336.79 295.99C329.081 299.163 320.43 299.163 312.72 295.99C309.613 294.538 306.897 292.364 304.8 289.65C302.748 286.945 301.28 283.843 300.49 280.54C299.618 277.007 299.185 273.379 299.2 269.74V226.45H305.74V268.06C305.756 270.741 305.987 273.416 306.43 276.06C306.87 278.838 307.791 281.518 309.15 283.98C310.534 286.43 312.511 288.493 314.9 289.98C317.38 291.56 320.667 292.35 324.76 292.35C328.853 292.35 332.137 291.56 334.61 289.98C336.999 288.493 338.976 286.43 340.36 283.98C341.719 281.518 342.64 278.838 343.08 276.06C343.523 273.416 343.754 270.741 343.77 268.06V226.45H350.31V269.74Z" fill="white"/>
<path d="M417.47 232.4H393.47V226.45H447.95V232.4H423.95V296.58H417.41L417.47 232.4Z" fill="white"/>
<path d="M508.01 266.37L482.25 226.45H490.08L511.28 259.74L532.97 226.45H540.3L514.55 266.37V296.58H508.01V266.37Z" fill="white"/>
<path d="M508.93 64.88L503.37 78.07L489.16 79.85L480.52 68.43L486.08 55.24L500.29 53.46L508.93 64.88Z" fill="white"/>
<path d="M546.5 22.47L542 33.15L530.5 34.58L523.51 25.35L528.01 14.67L539.51 13.23L546.5 22.47Z" fill="white"/>
<path d="M549.21 84.8099L543.65 98.0099L529.44 99.7799L520.8 88.3699L526.36 75.1799L540.57 73.3999L549.21 84.8099Z" fill="white"/>
<path d="M536.66 52.9999L533.54 60.3799L525.6 61.3699L520.76 54.9799L523.88 47.6099L531.82 46.6099L536.66 52.9999Z" fill="white"/>
<path d="M521.28 5.7001L518.54 12.2101L511.53 13.0801L507.27 7.46008L510.02 0.950104L517.02 0.0800781L521.28 5.7001Z" fill="white"/>
<path d="M581.18 72.7301L577.46 81.5401L567.97 82.7301L562.2 75.1001L565.91 66.2901L575.4 65.1001L581.18 72.7301Z" fill="white"/>
<path d="M508 33.4101L504.34 42.1101L494.97 43.2801L489.27 35.7501L492.94 27.0601L502.31 25.8901L508 33.4101Z" fill="white"/>
<path d="M578.69 23.0299L575.95 29.5399L568.94 30.4099L564.68 24.7799L567.43 18.2799L574.43 17.3999L578.69 23.0299Z" fill="white"/>
<path d="M565.21 47.1402L561.93 54.9102L553.57 55.9502L548.49 49.2402L551.76 41.4702L560.12 40.4302L565.21 47.1402Z" fill="white"/>
</svg>
